<svg xmlns="http://www.w3.org/2000/svg" width="156.155" height="121.427" viewBox="0 0 156.155 121.427"><g transform="translate(-277.308 -487.915)" style="isolation:isolate"><g transform="translate(303.238 599.717)"><path d="M0,0A13.213,13.213,0,0,1-3.651,5.884a12.5,12.5,0,0,1-9.141,3.741,12.5,12.5,0,0,1-9.144-3.741,12.512,12.512,0,0,1-3.829-9.173,12.547,12.547,0,0,1,3.829-9.2,12.452,12.452,0,0,1,9.144-3.772h.179v4.013a8.626,8.626,0,0,0-6.365,2.685A8.658,8.658,0,0,0-21.572-3.2a8.39,8.39,0,0,0,2.655,6.276,8.492,8.492,0,0,0,6.367,2.655,8.588,8.588,0,0,0,6.3-2.595A8.943,8.943,0,0,0-3.528-2.9V-25.888H.241V-3.771H8.42V-25.284h3.829V-3.771h6.668V-25.284h3.832V0Z" fill="#f0b76e"/></g><g transform="translate(343.548 577.963)"><path d="M0,0H-.393A8.656,8.656,0,0,0-6.715,2.624a8.691,8.691,0,0,0-2.641,6.4v.06a8.513,8.513,0,0,0,2.6,6.244A8.711,8.711,0,0,0-.695,17.983H8.629V9.023a8.852,8.852,0,0,0-2.6-6.428A8.793,8.793,0,0,0,0,0M-13.245,9.083v-.3A12.539,12.539,0,0,1-9.475-.392a12.4,12.4,0,0,1,9.141-3.8H0A12.689,12.689,0,0,1,8.9-.423a12.647,12.647,0,0,1,3.773,9.2v9.2h4.312v3.771H12.339a12.085,12.085,0,0,1-3.316,5.825,12.711,12.711,0,0,1-9.2,3.74H-.512V27.425h.06a8.762,8.762,0,0,0,6.425-2.653,8.551,8.551,0,0,0,1.991-3.019H-.876a12.282,12.282,0,0,1-8.6-3.831,12.631,12.631,0,0,1-3.771-8.84" fill="#f0b76e"/></g><g transform="translate(377.823 604.726)"><path d="M0,0A2.757,2.757,0,0,1-.859,2.067,2.832,2.832,0,0,1-2.895,2.9a2.964,2.964,0,0,1-2.113-.831A2.734,2.734,0,0,1-5.884,0a2.737,2.737,0,0,1,.876-2.068A2.969,2.969,0,0,1-2.895-2.9a2.836,2.836,0,0,1,2.036.829A2.76,2.76,0,0,1,0,0M1.6-8.78a8.728,8.728,0,0,0,6.065-2.656,8.582,8.582,0,0,0,2.593-6.305,8.71,8.71,0,0,0-2.623-6.4A8.642,8.642,0,0,0,1.3-26.763a8.648,8.648,0,0,0-6.367,2.595A8.68,8.68,0,0,0-7.723-17.8h-4.015v-.18a12.5,12.5,0,0,1,3.8-9.172,12.487,12.487,0,0,1,9.171-3.8,12.4,12.4,0,0,1,9.143,3.8,12.549,12.549,0,0,1,3.771,9.172A12.455,12.455,0,0,1,10.38-8.84a12.292,12.292,0,0,1-8.6,3.831H-18.524V-8.78H-7.9l9.5-.06Z" fill="#f0b76e"/></g><g transform="translate(409.141 577.963)"><path d="M0,0A8.584,8.584,0,0,0-6.305,2.595,8.75,8.75,0,0,0-8.963,9.023v.06a8.518,8.518,0,0,0,2.6,6.244A8.621,8.621,0,0,0-.3,17.983H9.023V9.023a8.92,8.92,0,0,0-2.6-6.428A8.577,8.577,0,0,0,.364,0ZM-12.852,8.78a12.519,12.519,0,0,1,3.771-9.2A12.451,12.451,0,0,1,.06-4.195h.3a12.657,12.657,0,0,1,8.9,3.772,12.516,12.516,0,0,1,3.773,9.2v9.2l-.3,3.771a12.47,12.47,0,0,1-3.348,5.825,12.577,12.577,0,0,1-9.2,3.74h-.3V27.425h.06a8.762,8.762,0,0,0,6.425-2.653,8.6,8.6,0,0,0,1.961-3.019H-.481a12.436,12.436,0,0,1-8.6-3.831,12.376,12.376,0,0,1-3.771-8.84Z" fill="#f0b76e"/></g><path d="M444.524-165.164h3.769v30.977h-3.769Zm6.776-5.481v2.313h-9.693v-2.313h.688a3.843,3.843,0,0,1-.511-2.468,4.5,4.5,0,0,1,1.423-3.313,4.651,4.651,0,0,1,3.447-1.423,4,4,0,0,1,3.291,1.423,5.406,5.406,0,0,1,.956,3.959h-2a3.087,3.087,0,0,0-.691-2.247,2.039,2.039,0,0,0-1.555-.668,1.974,1.974,0,0,0-1.535.668,2.3,2.3,0,0,0-.691,1.689,2.229,2.229,0,0,0,.647,1.647,2.416,2.416,0,0,0,1.489.733Z" transform="translate(-18 733.903)" fill="#f0b76e"/><g transform="translate(406.986 539.4)"><path d="M0,0A21.151,21.151,0,0,0,10.7,3.019c6.107,0,9.675-3.224,9.675-7.889,0-4.323-2.469-6.791-8.711-9.192C4.116-16.739-.548-20.648-.548-27.165c0-7.2,5.965-12.552,14.953-12.552a21.019,21.019,0,0,1,10.223,2.264l-1.649,4.871a18.377,18.377,0,0,0-8.78-2.2c-6.309,0-8.712,3.773-8.712,6.928,0,4.323,2.815,6.448,9.192,8.919,7.82,3.016,11.8,6.791,11.8,13.58,0,7.136-5.281,13.309-16.189,13.309-4.459,0-9.328-1.3-11.8-2.949Z" fill="#f0b76e"/></g><g transform="translate(378.474 544.691)"><path d="M0,0A19.064,19.064,0,0,1-12.329-4.516a18.008,18.008,0,0,1-2.777-2.931,18.983,18.983,0,0,1-4.029-11.719,18.925,18.925,0,0,1,4.029-11.72,17.929,17.929,0,0,1,2.777-2.9A18.907,18.907,0,0,1,0-38.3,19.153,19.153,0,0,1,19.167-19.165,19.178,19.178,0,0,1,0,0M0-42.269a22.856,22.856,0,0,0-15.076,5.647,20.626,20.626,0,0,0-2.808,2.837A22.931,22.931,0,0,0-23.1-19.165,23.006,23.006,0,0,0-17.884-4.516a22.237,22.237,0,0,0,2.808,2.837A22.857,22.857,0,0,0,0,3.969,23.161,23.161,0,0,0,23.135-19.165,23.134,23.134,0,0,0,0-42.269" fill="#f0b76e"/></g><g transform="translate(363.399 508.069)"><path d="M0,0A22.448,22.448,0,0,0-11.293-5.311v4.028a18.9,18.9,0,0,1,8.485,4.12,16.707,16.707,0,0,1,2.777,2.9,17.872,17.872,0,0,1,2.777-2.9A20.321,20.321,0,0,0,0,0" fill="#f0b76e"/></g><g transform="translate(344.057 546.9)"><path d="M0,0C0,5.388-.429,6.835-1.308,7.861A5.816,5.816,0,0,1-5.195,9.3l-.895.065.629,4.827h.744A11.248,11.248,0,0,0,2.84,11.389C4.923,9.26,5.769,6.417,5.769,1.576V-50.135H0Z" fill="#f0b76e"/></g><g transform="translate(346.895 494.663)"><path d="M0,0A3.435,3.435,0,0,0,2.507-1,3.21,3.21,0,0,0,3.4-3.351a3.242,3.242,0,0,0-3.3-3.4,3.344,3.344,0,0,0-3.441,3.4A3.275,3.275,0,0,0,0,0" fill="#f0b76e"/></g><g transform="translate(330.132 537.276)"><path d="M0,0A15.464,15.464,0,0,1-2.777,2.868,18.926,18.926,0,0,1-15.108,7.416,19.173,19.173,0,0,1-34.243-11.751,19.146,19.146,0,0,1-15.108-30.885,18.906,18.906,0,0,1-2.777-26.369,17.624,17.624,0,0,1,0-23.5,19.022,19.022,0,0,1,4.059-11.751,19.089,19.089,0,0,1,0,0M2.777-26.369A18.834,18.834,0,0,0,0-29.207a22.872,22.872,0,0,0-15.108-5.648,23.133,23.133,0,0,0-23.133,23.1A23.159,23.159,0,0,0-15.108,11.384,22.878,22.878,0,0,0,0,5.737,22.5,22.5,0,0,0,2.808,2.9,23.01,23.01,0,0,0,8.027-11.751,22.779,22.779,0,0,0,2.777-26.369" fill="#f0b76e"/></g><g transform="translate(327.354 510.906)"><path d="M0,0A17.732,17.732,0,0,1,2.777,2.869,17.689,17.689,0,0,1,5.555,0a19.315,19.315,0,0,1,8.637-4.149V-8.179A23.157,23.157,0,0,0,2.777-2.837,18.9,18.9,0,0,0,0,0" fill="#f0b76e"/></g><g transform="translate(281.782 533.752)"><path d="M0,0S-3.705-8.271,1.468-9.319l9.508-4.615,2.448-6.013-14.709,8.04S-5.593-9.6-4.195-3.1-.349,1.351,0,0" fill="#f0b76e"/></g><g transform="translate(316.276 508.755)"><path d="M0,0A25.475,25.475,0,0,0-11.161,5.855a16.761,16.761,0,0,0-3.685,5,27.6,27.6,0,0,0-2.077,6.073,16.262,16.262,0,0,1,1-6.543,14.135,14.135,0,0,1,3.711-5.631A16.876,16.876,0,0,1-6.5,1.195,17.438,17.438,0,0,1,0,0" fill="#f0b76e"/></g><g transform="translate(378.119 542.332)"><path d="M0,0A25.473,25.473,0,0,0,10.927-6.28a16.726,16.726,0,0,0,3.491-5.135,27.534,27.534,0,0,0,1.843-6.151,16.307,16.307,0,0,1-.748,6.577,14.166,14.166,0,0,1-3.491,5.771A16.9,16.9,0,0,1,6.453-1.444,17.468,17.468,0,0,1,0,0" fill="#f0b76e"/></g></g></svg>